<mxfile host="app.diagrams.net" agent="Mozilla/5.0 (Windows NT 10.0; Win64; x64) AppleWebKit/537.36 (KHTML, like Gecko) Chrome/126.0.0.0 Safari/537.36 OPR/112.0.0.0" version="24.7.8">
  <diagram name="Página-1" id="9TEIK08Y7EMJUcr1PAxu">
    <mxGraphModel grid="1" page="1" gridSize="10" guides="1" tooltips="1" connect="1" arrows="1" fold="1" pageScale="1" pageWidth="827" pageHeight="1169" math="0" shadow="0">
      <root>
        <mxCell id="0" />
        <mxCell id="1" parent="0" />
        <mxCell id="GDJHlFwsTUm303jbTb7A-44" style="rounded=0;orthogonalLoop=1;jettySize=auto;html=1;endArrow=none;endFill=0;entryX=0.396;entryY=0.029;entryDx=0;entryDy=0;entryPerimeter=0;movable=0;resizable=0;rotatable=0;deletable=0;editable=0;locked=1;connectable=0;" edge="1" parent="1" target="Shqv9MNBT7X-5zudtKin-11">
          <mxGeometry relative="1" as="geometry">
            <mxPoint x="46" y="526" as="sourcePoint" />
            <mxPoint x="176.36282363224095" y="830.0041414169322" as="targetPoint" />
          </mxGeometry>
        </mxCell>
        <mxCell id="GDJHlFwsTUm303jbTb7A-12" style="rounded=0;orthogonalLoop=1;jettySize=auto;html=1;endArrow=none;endFill=0;movable=0;resizable=0;rotatable=0;deletable=0;editable=0;locked=1;connectable=0;" edge="1" parent="1" source="GDJHlFwsTUm303jbTb7A-3" target="GDJHlFwsTUm303jbTb7A-7">
          <mxGeometry relative="1" as="geometry" />
        </mxCell>
        <mxCell id="GDJHlFwsTUm303jbTb7A-2" value="Leitor" style="shape=umlActor;verticalLabelPosition=bottom;verticalAlign=top;html=1;movable=0;resizable=0;rotatable=0;deletable=0;editable=0;locked=1;connectable=0;" vertex="1" parent="1">
          <mxGeometry x="15" y="517" width="30" height="60" as="geometry" />
        </mxCell>
        <mxCell id="GDJHlFwsTUm303jbTb7A-43" style="rounded=0;orthogonalLoop=1;jettySize=auto;html=1;endArrow=none;endFill=0;movable=0;resizable=0;rotatable=0;deletable=0;editable=0;locked=1;connectable=0;" edge="1" parent="1" source="GDJHlFwsTUm303jbTb7A-2" target="Shqv9MNBT7X-5zudtKin-8">
          <mxGeometry relative="1" as="geometry" />
        </mxCell>
        <mxCell id="GDJHlFwsTUm303jbTb7A-32" style="rounded=0;orthogonalLoop=1;jettySize=auto;html=1;endArrow=none;endFill=0;movable=0;resizable=0;rotatable=0;deletable=0;editable=0;locked=1;connectable=0;" edge="1" parent="1" source="GDJHlFwsTUm303jbTb7A-3" target="GDJHlFwsTUm303jbTb7A-6">
          <mxGeometry relative="1" as="geometry" />
        </mxCell>
        <mxCell id="GDJHlFwsTUm303jbTb7A-36" style="rounded=0;orthogonalLoop=1;jettySize=auto;html=1;endArrow=none;endFill=0;movable=0;resizable=0;rotatable=0;deletable=0;editable=0;locked=1;connectable=0;" edge="1" parent="1" source="GDJHlFwsTUm303jbTb7A-3" target="Shqv9MNBT7X-5zudtKin-5">
          <mxGeometry relative="1" as="geometry" />
        </mxCell>
        <mxCell id="GDJHlFwsTUm303jbTb7A-37" style="rounded=0;orthogonalLoop=1;jettySize=auto;html=1;endArrow=none;endFill=0;movable=0;resizable=0;rotatable=0;deletable=0;editable=0;locked=1;connectable=0;" edge="1" parent="1" source="GDJHlFwsTUm303jbTb7A-3" target="Shqv9MNBT7X-5zudtKin-4">
          <mxGeometry relative="1" as="geometry" />
        </mxCell>
        <mxCell id="GDJHlFwsTUm303jbTb7A-38" style="rounded=0;orthogonalLoop=1;jettySize=auto;html=1;endArrow=none;endFill=0;movable=0;resizable=0;rotatable=0;deletable=0;editable=0;locked=1;connectable=0;" edge="1" parent="1" source="GDJHlFwsTUm303jbTb7A-3" target="Shqv9MNBT7X-5zudtKin-6">
          <mxGeometry relative="1" as="geometry" />
        </mxCell>
        <mxCell id="Shqv9MNBT7X-5zudtKin-16" style="rounded=0;orthogonalLoop=1;jettySize=auto;html=1;endArrow=none;endFill=0;movable=0;resizable=0;rotatable=0;deletable=0;editable=0;locked=1;connectable=0;" edge="1" parent="1" source="GDJHlFwsTUm303jbTb7A-3" target="GDJHlFwsTUm303jbTb7A-41">
          <mxGeometry relative="1" as="geometry" />
        </mxCell>
        <mxCell id="Shqv9MNBT7X-5zudtKin-17" style="rounded=0;orthogonalLoop=1;jettySize=auto;html=1;endArrow=none;endFill=0;movable=0;resizable=0;rotatable=0;deletable=0;editable=0;locked=1;connectable=0;" edge="1" parent="1" source="GDJHlFwsTUm303jbTb7A-3" target="Shqv9MNBT7X-5zudtKin-11">
          <mxGeometry relative="1" as="geometry" />
        </mxCell>
        <mxCell id="GDJHlFwsTUm303jbTb7A-50" style="rounded=0;orthogonalLoop=1;jettySize=auto;html=1;movable=0;resizable=0;rotatable=0;deletable=0;editable=0;locked=1;connectable=0;" edge="1" parent="1" source="GDJHlFwsTUm303jbTb7A-3" target="Shqv9MNBT7X-5zudtKin-8">
          <mxGeometry relative="1" as="geometry" />
        </mxCell>
        <mxCell id="GDJHlFwsTUm303jbTb7A-58" style="rounded=0;orthogonalLoop=1;jettySize=auto;html=1;endArrow=none;endFill=0;movable=0;resizable=0;rotatable=0;deletable=0;editable=0;locked=1;connectable=0;" edge="1" parent="1" source="GDJHlFwsTUm303jbTb7A-3" target="GDJHlFwsTUm303jbTb7A-42">
          <mxGeometry relative="1" as="geometry" />
        </mxCell>
        <mxCell id="GDJHlFwsTUm303jbTb7A-61" style="rounded=0;orthogonalLoop=1;jettySize=auto;html=1;endArrow=none;endFill=0;movable=0;resizable=0;rotatable=0;deletable=0;editable=0;locked=1;connectable=0;" edge="1" parent="1" source="GDJHlFwsTUm303jbTb7A-3" target="GDJHlFwsTUm303jbTb7A-47">
          <mxGeometry relative="1" as="geometry" />
        </mxCell>
        <mxCell id="GDJHlFwsTUm303jbTb7A-3" value="&lt;div&gt;Gestor&lt;/div&gt;" style="shape=umlActor;verticalLabelPosition=bottom;verticalAlign=top;html=1;movable=0;resizable=0;rotatable=0;deletable=0;editable=0;locked=1;connectable=0;" vertex="1" parent="1">
          <mxGeometry x="750" y="517" width="30" height="60" as="geometry" />
        </mxCell>
        <mxCell id="GDJHlFwsTUm303jbTb7A-5" value="Sistema" style="shape=umlFrame;whiteSpace=wrap;html=1;pointerEvents=0;movable=0;resizable=0;rotatable=0;deletable=0;editable=0;locked=1;connectable=0;" vertex="1" parent="1">
          <mxGeometry x="64" y="14" width="646" height="1066" as="geometry" />
        </mxCell>
        <mxCell id="GDJHlFwsTUm303jbTb7A-11" style="rounded=0;orthogonalLoop=1;jettySize=auto;html=1;endArrow=none;endFill=0;movable=0;resizable=0;rotatable=0;deletable=0;editable=0;locked=1;connectable=0;" edge="1" parent="1" source="GDJHlFwsTUm303jbTb7A-2" target="GDJHlFwsTUm303jbTb7A-6">
          <mxGeometry relative="1" as="geometry">
            <mxPoint x="150" y="190" as="sourcePoint" />
          </mxGeometry>
        </mxCell>
        <mxCell id="GDJHlFwsTUm303jbTb7A-35" value="&amp;lt;&amp;lt;extend&amp;gt;&amp;gt;" style="endArrow=open;endSize=12;dashed=1;html=1;rounded=0;movable=0;resizable=0;rotatable=0;deletable=0;editable=0;locked=1;connectable=0;" edge="1" parent="1" source="GDJHlFwsTUm303jbTb7A-7" target="Shqv9MNBT7X-5zudtKin-4">
          <mxGeometry width="160" relative="1" as="geometry">
            <mxPoint x="880" y="340" as="sourcePoint" />
            <mxPoint x="1040" y="340" as="targetPoint" />
          </mxGeometry>
        </mxCell>
        <mxCell id="Shqv9MNBT7X-5zudtKin-14" style="rounded=0;orthogonalLoop=1;jettySize=auto;html=1;entryX=1;entryY=0;entryDx=0;entryDy=0;strokeColor=default;endArrow=none;endFill=0;movable=0;resizable=0;rotatable=0;deletable=0;editable=0;locked=1;connectable=0;" edge="1" parent="1" source="GDJHlFwsTUm303jbTb7A-3" target="GDJHlFwsTUm303jbTb7A-40">
          <mxGeometry relative="1" as="geometry">
            <mxPoint x="990" y="600" as="sourcePoint" />
          </mxGeometry>
        </mxCell>
        <mxCell id="GDJHlFwsTUm303jbTb7A-28" style="rounded=0;orthogonalLoop=1;jettySize=auto;html=1;endArrow=none;endFill=0;movable=0;resizable=0;rotatable=0;deletable=0;editable=0;locked=1;connectable=0;" edge="1" parent="1" source="GDJHlFwsTUm303jbTb7A-3" target="GDJHlFwsTUm303jbTb7A-27">
          <mxGeometry relative="1" as="geometry" />
        </mxCell>
        <mxCell id="GDJHlFwsTUm303jbTb7A-16" style="rounded=0;orthogonalLoop=1;jettySize=auto;html=1;endArrow=none;endFill=0;exitX=0.25;exitY=0.1;exitDx=0;exitDy=0;exitPerimeter=0;movable=0;resizable=0;rotatable=0;deletable=0;editable=0;locked=1;connectable=0;" edge="1" parent="1" source="GDJHlFwsTUm303jbTb7A-3" target="GDJHlFwsTUm303jbTb7A-15">
          <mxGeometry relative="1" as="geometry">
            <mxPoint x="1000" y="570" as="sourcePoint" />
          </mxGeometry>
        </mxCell>
        <mxCell id="GDJHlFwsTUm303jbTb7A-45" value="&lt;div&gt;&amp;lt;&amp;lt;extend&amp;gt;&amp;gt;&lt;/div&gt;" style="endArrow=open;endSize=12;dashed=1;html=1;rounded=0;movable=0;resizable=0;rotatable=0;deletable=0;editable=0;locked=1;connectable=0;" edge="1" parent="1" source="GDJHlFwsTUm303jbTb7A-40" target="Shqv9MNBT7X-5zudtKin-4">
          <mxGeometry x="-0.2091" y="18" width="160" relative="1" as="geometry">
            <mxPoint x="740" y="620" as="sourcePoint" />
            <mxPoint x="900" y="620" as="targetPoint" />
            <mxPoint as="offset" />
          </mxGeometry>
        </mxCell>
        <mxCell id="GDJHlFwsTUm303jbTb7A-47" value="UC-13: Exportar Dados" style="ellipse;whiteSpace=wrap;html=1;movable=0;resizable=0;rotatable=0;deletable=0;editable=0;locked=1;connectable=0;" vertex="1" parent="1">
          <mxGeometry x="500" y="968" width="160" height="80" as="geometry" />
        </mxCell>
        <mxCell id="GDJHlFwsTUm303jbTb7A-39" value="Módulo Comissões" style="shape=umlFrame;whiteSpace=wrap;html=1;pointerEvents=0;width=80;height=40;movable=0;resizable=0;rotatable=0;deletable=0;editable=0;locked=1;connectable=0;" vertex="1" parent="1">
          <mxGeometry x="100" y="694" width="580" height="234" as="geometry" />
        </mxCell>
        <mxCell id="GDJHlFwsTUm303jbTb7A-40" value="&lt;div&gt;UC-10: Cadastrar comissões&lt;/div&gt;" style="ellipse;whiteSpace=wrap;html=1;movable=0;resizable=0;rotatable=0;deletable=0;editable=0;locked=1;connectable=0;" vertex="1" parent="1">
          <mxGeometry x="190" y="722" width="160" height="80" as="geometry" />
        </mxCell>
        <mxCell id="Shqv9MNBT7X-5zudtKin-11" value="UC-9: Visualizar comissões" style="ellipse;whiteSpace=wrap;html=1;movable=0;resizable=0;rotatable=0;deletable=0;editable=0;locked=1;connectable=0;" vertex="1" parent="1">
          <mxGeometry x="104" y="838" width="160" height="80" as="geometry" />
        </mxCell>
        <mxCell id="GDJHlFwsTUm303jbTb7A-41" value="UC-11: Editar comissão" style="ellipse;whiteSpace=wrap;html=1;movable=0;resizable=0;rotatable=0;deletable=0;editable=0;locked=1;connectable=0;" vertex="1" parent="1">
          <mxGeometry x="280" y="830" width="160" height="80" as="geometry" />
        </mxCell>
        <mxCell id="GDJHlFwsTUm303jbTb7A-42" value="&lt;div&gt;UC-12: Excluir comissões&lt;br&gt;&lt;/div&gt;" style="ellipse;whiteSpace=wrap;html=1;movable=0;resizable=0;rotatable=0;deletable=0;editable=0;locked=1;connectable=0;" vertex="1" parent="1">
          <mxGeometry x="460" y="814" width="160" height="80" as="geometry" />
        </mxCell>
        <mxCell id="GDJHlFwsTUm303jbTb7A-6" value="UC-1: Ler portaria" style="ellipse;whiteSpace=wrap;html=1;movable=0;resizable=0;rotatable=0;deletable=0;editable=0;locked=1;connectable=0;" vertex="1" parent="1">
          <mxGeometry x="116" y="372" width="160" height="80" as="geometry" />
        </mxCell>
        <mxCell id="Shqv9MNBT7X-5zudtKin-2" value="Módulo Portarias" style="shape=umlFrame;whiteSpace=wrap;html=1;pointerEvents=0;movable=0;resizable=0;rotatable=0;deletable=0;editable=0;locked=1;connectable=0;" vertex="1" parent="1">
          <mxGeometry x="100" y="320" width="580" height="342" as="geometry" />
        </mxCell>
        <mxCell id="Shqv9MNBT7X-5zudtKin-4" value="&lt;div&gt;UC-2: Cadastrar portarias&lt;/div&gt;" style="ellipse;whiteSpace=wrap;html=1;movable=0;resizable=0;rotatable=0;deletable=0;editable=0;locked=1;connectable=0;" vertex="1" parent="1">
          <mxGeometry x="238" y="473" width="160" height="80" as="geometry" />
        </mxCell>
        <mxCell id="Shqv9MNBT7X-5zudtKin-5" value="UC-3: Editar Dados de Portarias" style="ellipse;whiteSpace=wrap;html=1;movable=0;resizable=0;rotatable=0;deletable=0;editable=0;locked=1;connectable=0;" vertex="1" parent="1">
          <mxGeometry x="328" y="370" width="160" height="80" as="geometry" />
        </mxCell>
        <mxCell id="Shqv9MNBT7X-5zudtKin-6" value="&lt;div&gt;UC-4: Excluir&amp;nbsp;&lt;span style=&quot;background-color: initial;&quot;&gt;Portarias&lt;/span&gt;&lt;/div&gt;" style="ellipse;whiteSpace=wrap;html=1;movable=0;resizable=0;rotatable=0;deletable=0;editable=0;locked=1;connectable=0;" vertex="1" parent="1">
          <mxGeometry x="392" y="565" width="160" height="80" as="geometry" />
        </mxCell>
        <mxCell id="GDJHlFwsTUm303jbTb7A-7" value="UC-6: Cadastrar Dados Pessoas" style="ellipse;whiteSpace=wrap;html=1;movable=0;resizable=0;rotatable=0;deletable=0;editable=0;locked=1;connectable=0;" vertex="1" parent="1">
          <mxGeometry x="199" y="194" width="160" height="80" as="geometry" />
        </mxCell>
        <mxCell id="GDJHlFwsTUm303jbTb7A-19" value="Módulo Pessoas" style="shape=umlFrame;whiteSpace=wrap;html=1;pointerEvents=0;movable=0;resizable=0;rotatable=0;deletable=0;editable=0;locked=1;connectable=0;" vertex="1" parent="1">
          <mxGeometry x="100" y="50" width="583" height="250" as="geometry" />
        </mxCell>
        <mxCell id="GDJHlFwsTUm303jbTb7A-15" value="UC-8: Editar Dados de Pessoas" style="ellipse;whiteSpace=wrap;html=1;movable=0;resizable=0;rotatable=0;deletable=0;editable=0;locked=1;connectable=0;" vertex="1" parent="1">
          <mxGeometry x="510" y="60" width="160" height="80" as="geometry" />
        </mxCell>
        <mxCell id="GDJHlFwsTUm303jbTb7A-27" value="&lt;div&gt;UC-7: Excluir Pessoas&lt;/div&gt;" style="ellipse;whiteSpace=wrap;html=1;movable=0;resizable=0;rotatable=0;deletable=0;editable=0;locked=1;connectable=0;" vertex="1" parent="1">
          <mxGeometry x="371" y="132" width="160" height="80" as="geometry" />
        </mxCell>
        <mxCell id="Shqv9MNBT7X-5zudtKin-8" value="UC-5: Ler pessoas" style="ellipse;whiteSpace=wrap;html=1;movable=0;resizable=0;rotatable=0;deletable=0;editable=0;locked=1;connectable=0;" vertex="1" parent="1">
          <mxGeometry x="187" y="86" width="160" height="80" as="geometry" />
        </mxCell>
      </root>
    </mxGraphModel>
  </diagram>
</mxfile>
